PathFileType	4	(X/Y/Z)	./resultDataOpenSim/trcMotMarkerGrf/sub10/qtm-12-06.trc
DataRate	CameraRate	NumFrames	NumMarkers	Units	OrigDataRate	OrigDataStartFrame	OrigNumFrames
250.000000	250.000000	7	24	m	250.000000	363	483
Frame#	Time	L.Toe.Tip			R.Toe.Tip			L.Ankle.Lat			R.Ankle.Lat			L.Ankle.Med			R.Ankle.Med			L.Heel			R.Heel			L.Knee.Lat			R.Knee.Lat			L.Knee.Med			R.Knee.Med			L.Thigh.Upper			R.Thigh.Upper			L.ASIS			R.ASIS			V.Sacral			L.Acromium			R.Acromium			C7			L.Elbow			R.Elbow			L.Wrist.Lat			R.Wrist.Lat
		X1	Y1	Z1	X2	Y2	Z2	X3	Y3	Z3	X4	Y4	Z4	X5	Y5	Z5	X6	Y6	Z6	X7	Y7	Z7	X8	Y8	Z8	X9	Y9	Z9	X10	Y10	Z10	X11	Y11	Z11	X12	Y12	Z12	X13	Y13	Z13	X14	Y14	Z14	X15	Y15	Z15	X16	Y16	Z16	X17	Y17	Z17	X18	Y18	Z18	X19	Y19	Z19	X20	Y20	Z20	X21	Y21	Z21	X22	Y22	Z22	X23	Y23	Z23	X24	Y24	Z24

363	1.448	0.82977229	0.06732642	-0.14197173	0.83224971	0.037916724	0.026018492	0.72526812	0.15339786	-0.15409558	0.68969183	0.062117968	0.064570749	0.75662521	0.16441958	-0.073938052	0.71426345	0.091258059	-0.016062567	0.65924473	0.15175321	-0.102332	0.63964274	0.042506985	0.017449758	0.92771629	0.47940376	-0.18164639	0.77637804	0.45628291	0.11101258	0.95695158	0.45093718	-0.064254468	0.78820786	0.46145078	-0.015729712	0.817172	0.84488484	-0.21266777	0.79599665	0.87423675	0.16706185	0.86883618	0.96034772	-0.14556784	0.86882912	0.96622337	0.097920885	0.66858505	0.97515362	-0.031822646	0.79515877	1.4375702	-0.17628313	0.74625462	1.4277835	0.14608808	0.68949066	1.4566162	-0.028944304	0.68906535	1.1126872	-0.21912686	0.69246306	1.0735255	0.18946546	0.854853	0.90009469	-0.2568725	0.86706638	0.91438671	0.2602169
364	1.452	0.84934093	0.066561595	-0.14174554	0.832266	0.037890066	0.025998244	0.74223111	0.14924504	-0.15357667	0.68971025	0.062407367	0.064149535	0.77336109	0.16114544	-0.073388267	0.71460158	0.091623989	-0.016365561	0.67636682	0.14564202	-0.10148035	0.63978199	0.042762515	0.016881824	0.93597643	0.48072125	-0.18175347	0.77718983	0.45636879	0.11106745	0.96666978	0.45257962	-0.064140526	0.7895331	0.46145487	-0.015850871	0.82479104	0.84548868	-0.21267341	0.79905119	0.87432782	0.16714598	0.87512553	0.96063491	-0.14494538	0.87292045	0.96626527	0.098599028	0.67477448	0.97537196	-0.031911113	0.80059538	1.4374473	-0.17637138	0.75153805	1.427963	0.14604859	0.69480704	1.4567617	-0.02906895	0.69419326	1.1127035	-0.21987726	0.70058354	1.0730791	0.19075532	0.85586924	0.89892062	-0.25775839	0.87883778	0.91689389	0.2599105
365	1.456	0.86905562	0.065875185	-0.14157131	0.83232107	0.03790654	0.025972828	0.7593344	0.14509877	-0.15305129	0.68972317	0.062682966	0.063714656	0.79020825	0.15788382	-0.072871116	0.71468937	0.0919537	-0.016778255	0.69356629	0.13962244	-0.10063177	0.6398349	0.043022147	0.016212985	0.94424726	0.48196252	-0.18174513	0.77803376	0.45645057	0.11113191	0.97632015	0.45413739	-0.063923234	0.79084565	0.46142313	-0.016083431	0.83177453	0.84596977	-0.21275685	0.80228585	0.8742928	0.16723498	0.88142853	0.96082142	-0.14429923	0.87701095	0.96626304	0.099292948	0.68103907	0.97563056	-0.031428408	0.80602069	1.437244	-0.17646658	0.75682637	1.4280636	0.14600223	0.70011505	1.4568363	-0.029201857	0.69947974	1.1125941	-0.22075665	0.70860765	1.072613	0.19190343	0.85685308	0.89770155	-0.25862386	0.89059758	0.91936646	0.25959576
366	1.46	0.88886374	0.065278024	-0.14145306	0.83243965	0.037954443	0.025934463	0.77655063	0.14098223	-0.15251075	0.68973201	0.062939446	0.06326665	0.80715534	0.15464884	-0.072388408	0.71461689	0.092204405	-0.017285157	0.71090125	0.13366889	-0.099799371	0.63986479	0.043308187	0.015538334	0.9530687	0.48313441	-0.18139463	0.77889386	0.45653789	0.11119459	0.98586975	0.45561647	-0.063589754	0.79225996	0.46135765	-0.016290993	0.83838864	0.84634997	-0.21284851	0.80569161	0.87413468	0.16733459	0.88769817	0.96090633	-0.14363091	0.88110411	0.96621565	0.10000344	0.6870076	0.9758122	-0.031139991	0.81144091	1.4369671	-0.17656831	0.76210828	1.4280876	0.14594422	0.70541097	1.4568423	-0.029342531	0.70489977	1.1123687	-0.22174499	0.7166636	1.0721519	0.19302027	0.85780538	0.89645604	-0.25948125	0.90235923	0.92180018	0.25926382
367	1.464	0.90868085	0.064787095	-0.14135559	0.8326204	0.038017553	0.025885588	0.79388031	0.13691337	-0.15195764	0.68973609	0.063177368	0.062810708	0.82421234	0.15145691	-0.071964635	0.71459947	0.092379813	-0.01780785	0.72847655	0.12771171	-0.098984008	0.63988932	0.04362202	0.014879052	0.96249611	0.48422287	-0.18068846	0.77978456	0.45662127	0.11123602	0.9952178	0.45702909	-0.063177717	0.79389609	0.46125937	-0.016340249	0.84510211	0.846655	-0.21291536	0.80898999	0.8739151	0.16745891	0.89392993	0.96089511	-0.14295235	0.88520296	0.96611986	0.10072544	0.69255507	0.97578436	-0.031682915	0.81686567	1.4366188	-0.17667294	0.76738288	1.4280307	0.14587267	0.71069073	1.4567738	-0.029499573	0.71043083	1.1120365	-0.22282411	0.72491786	1.0716903	0.19422115	0.85877586	0.89519844	-0.26034767	0.91411155	0.92421785	0.25889023
368	1.468	0.92843388	0.064416906	-0.14123204	0.83281268	0.038080481	0.025841358	0.81133877	0.13289374	-0.15140669	0.6897354	0.063407145	0.062352019	0.84141545	0.14833173	-0.071622826	0.7146984	0.092527363	-0.018299423	0.74637849	0.1216995	-0.098192185	0.63986577	0.043940942	0.014169398	0.97204993	0.48518457	-0.17987096	0.78073788	0.45667172	0.1112364	1.0042589	0.45838714	-0.062729848	0.7958331	0.46112286	-0.016150173	0.85219009	0.84690838	-0.21297429	0.81179028	0.87371165	0.16764265	0.90012277	0.96079473	-0.14226753	0.88930889	0.96597262	0.10145065	0.69781376	0.97554438	-0.033040623	0.8223031	1.4361932	-0.17678456	0.77265248	1.4278828	0.14578587	0.71595243	1.456619	-0.029678698	0.71605175	1.1116062	-0.22397677	0.73342284	1.0712053	0.19554917	0.85984161	0.89392351	-0.26122129	0.9258141	0.92664691	0.25846088
369	1.472	0.94811473	0.064172268	-0.14106117	0.83293982	0.038137289	0.025824123	0.82893465	0.12891884	-0.15086942	0.68973957	0.063639138	0.061895173	0.85883254	0.14530007	-0.071332106	0.71484682	0.092676302	-0.018767811	0.76460995	0.11565164	-0.097455591	0.639772	0.044247982	0.01338514	0.98121381	0.48597588	-0.17919895	0.78177488	0.45666052	0.11118917	1.0129981	0.45966005	-0.062291355	0.7979977	0.46094379	-0.015805792	0.85962722	0.84712686	-0.21302595	0.81403609	0.87355839	0.16788454	0.90626284	0.96061024	-0.14157082	0.89342137	0.96577195	0.10217204	0.70295426	0.97519092	-0.034777722	0.82775081	1.4356878	-0.17691552	0.77791583	1.4276386	0.14568214	0.72120006	1.456374	-0.029873839	0.72174162	1.1110864	-0.22518586	0.7421072	1.0706718	0.19697044	0.86102879	0.89261857	-0.26207869	0.93742451	0.9290895	0.25798745
